<mxfile host="app.diagrams.net" modified="2023-09-07T06:40:59.323Z" agent="Mozilla/5.0 (Macintosh; Intel Mac OS X 10_15_7) AppleWebKit/537.36 (KHTML, like Gecko) Chrome/116.0.0.0 Safari/537.36" etag="wnRlCFqg07W3UO2i6Ko8" version="21.6.9" type="google">
  <diagram name="Page-1" id="YxA9F_rZ-KGNmKypnFQw">
    <mxGraphModel grid="1" page="1" gridSize="10" guides="1" tooltips="1" connect="1" arrows="1" fold="1" pageScale="1" pageWidth="3300" pageHeight="2339" math="0" shadow="0">
      <root>
        <mxCell id="0" />
        <mxCell id="1" parent="0" />
        <mxCell id="r6zuIfPW_ujKlIlU0nBp-36" value="move()" style="html=1;align=left;spacingLeft=2;endArrow=block;rounded=0;edgeStyle=orthogonalEdgeStyle;curved=0;rounded=0;" edge="1" parent="1">
          <mxGeometry relative="1" as="geometry">
            <mxPoint x="584" y="1980" as="sourcePoint" />
            <Array as="points">
              <mxPoint x="610" y="1980" />
              <mxPoint x="610" y="2010" />
            </Array>
            <mxPoint x="584" y="2010.0434782608697" as="targetPoint" />
          </mxGeometry>
        </mxCell>
        <mxCell id="r6zuIfPW_ujKlIlU0nBp-4" value=":SpaceInvader" style="shape=umlLifeline;perimeter=lifelinePerimeter;whiteSpace=wrap;html=1;container=1;dropTarget=0;collapsible=0;recursiveResize=0;outlineConnect=0;portConstraint=eastwest;newEdgeStyle={&quot;edgeStyle&quot;:&quot;elbowEdgeStyle&quot;,&quot;elbow&quot;:&quot;vertical&quot;,&quot;curved&quot;:0,&quot;rounded&quot;:0};fontSize=16;" vertex="1" parent="1">
          <mxGeometry x="420" y="190" width="120" height="280" as="geometry" />
        </mxCell>
        <mxCell id="r6zuIfPW_ujKlIlU0nBp-14" value="" style="html=1;points=[];perimeter=orthogonalPerimeter;outlineConnect=0;targetShapes=umlLifeline;portConstraint=eastwest;newEdgeStyle={&quot;edgeStyle&quot;:&quot;elbowEdgeStyle&quot;,&quot;elbow&quot;:&quot;vertical&quot;,&quot;curved&quot;:0,&quot;rounded&quot;:0};fontSize=16;" vertex="1" parent="r6zuIfPW_ujKlIlU0nBp-4">
          <mxGeometry x="55" y="80" width="10" height="180" as="geometry" />
        </mxCell>
        <mxCell id="86Eyytz8qb6HiGRPf6Bo-1" value=":SpaceShip" style="shape=umlLifeline;whiteSpace=wrap;html=1;container=1;dropTarget=0;collapsible=0;recursiveResize=0;outlineConnect=0;portConstraint=eastwest;newEdgeStyle={&quot;curved&quot;:0,&quot;rounded&quot;:0};points=[[0,0,0,0,5],[0,1,0,0,-5],[1,0,0,0,5],[1,1,0,0,-5]];perimeter=rectanglePerimeter;targetShapes=umlLifeline;participant=label;" vertex="1" parent="1">
          <mxGeometry x="640" y="330" width="100" height="140" as="geometry" />
        </mxCell>
        <mxCell id="r6zuIfPW_ujKlIlU0nBp-7" value=":PropertiesLoader" style="shape=umlLifeline;perimeter=lifelinePerimeter;whiteSpace=wrap;html=1;container=1;dropTarget=0;collapsible=0;recursiveResize=0;outlineConnect=0;portConstraint=eastwest;newEdgeStyle={&quot;edgeStyle&quot;:&quot;elbowEdgeStyle&quot;,&quot;elbow&quot;:&quot;vertical&quot;,&quot;curved&quot;:0,&quot;rounded&quot;:0};fontSize=16;" vertex="1" parent="1">
          <mxGeometry x="260" y="50" width="130" height="410" as="geometry" />
        </mxCell>
        <mxCell id="r6zuIfPW_ujKlIlU0nBp-8" value=":Driver" style="shape=umlLifeline;perimeter=lifelinePerimeter;whiteSpace=wrap;html=1;container=1;dropTarget=0;collapsible=0;recursiveResize=0;outlineConnect=0;portConstraint=eastwest;newEdgeStyle={&quot;edgeStyle&quot;:&quot;elbowEdgeStyle&quot;,&quot;elbow&quot;:&quot;vertical&quot;,&quot;curved&quot;:0,&quot;rounded&quot;:0};fontSize=16;" vertex="1" parent="1">
          <mxGeometry x="70" y="50" width="100" height="410" as="geometry" />
        </mxCell>
        <mxCell id="r6zuIfPW_ujKlIlU0nBp-10" value="" style="html=1;points=[];perimeter=orthogonalPerimeter;outlineConnect=0;targetShapes=umlLifeline;portConstraint=eastwest;newEdgeStyle={&quot;edgeStyle&quot;:&quot;elbowEdgeStyle&quot;,&quot;elbow&quot;:&quot;vertical&quot;,&quot;curved&quot;:0,&quot;rounded&quot;:0};fontSize=16;" vertex="1" parent="r6zuIfPW_ujKlIlU0nBp-8">
          <mxGeometry x="45" y="70" width="10" height="330" as="geometry" />
        </mxCell>
        <mxCell id="r6zuIfPW_ujKlIlU0nBp-15" value="" style="html=1;points=[];perimeter=orthogonalPerimeter;outlineConnect=0;targetShapes=umlLifeline;portConstraint=eastwest;newEdgeStyle={&quot;edgeStyle&quot;:&quot;elbowEdgeStyle&quot;,&quot;elbow&quot;:&quot;vertical&quot;,&quot;curved&quot;:0,&quot;rounded&quot;:0};fontSize=16;" vertex="1" parent="r6zuIfPW_ujKlIlU0nBp-8">
          <mxGeometry x="250" y="90" width="10" height="40" as="geometry" />
        </mxCell>
        <mxCell id="r6zuIfPW_ujKlIlU0nBp-11" value="loadPropertiesFile(PropertiesPath)" style="html=1;verticalAlign=bottom;endArrow=block;edgeStyle=elbowEdgeStyle;elbow=vertical;curved=0;rounded=0;fontSize=12;startSize=8;endSize=8;" edge="1" parent="r6zuIfPW_ujKlIlU0nBp-8">
          <mxGeometry width="80" relative="1" as="geometry">
            <mxPoint x="55" y="90" as="sourcePoint" />
            <mxPoint x="249.5" y="90" as="targetPoint" />
            <Array as="points">
              <mxPoint x="160" y="90" />
            </Array>
          </mxGeometry>
        </mxCell>
        <mxCell id="r6zuIfPW_ujKlIlU0nBp-16" value="properties" style="html=1;verticalAlign=bottom;endArrow=open;dashed=1;endSize=8;edgeStyle=elbowEdgeStyle;elbow=vertical;curved=0;rounded=0;fontSize=12;" edge="1" parent="r6zuIfPW_ujKlIlU0nBp-8">
          <mxGeometry relative="1" as="geometry">
            <mxPoint x="249.5" y="122.5" as="sourcePoint" />
            <mxPoint x="55" y="122.5" as="targetPoint" />
          </mxGeometry>
        </mxCell>
        <mxCell id="r6zuIfPW_ujKlIlU0nBp-12" value="runApp(true)" style="html=1;verticalAlign=bottom;endArrow=block;edgeStyle=elbowEdgeStyle;elbow=vertical;curved=0;rounded=0;fontSize=12;startSize=8;endSize=8;" edge="1" parent="1">
          <mxGeometry width="80" relative="1" as="geometry">
            <mxPoint x="125" y="270" as="sourcePoint" />
            <mxPoint x="479.5" y="270" as="targetPoint" />
          </mxGeometry>
        </mxCell>
        <mxCell id="r6zuIfPW_ujKlIlU0nBp-13" value="logResult" style="html=1;verticalAlign=bottom;endArrow=open;dashed=1;endSize=8;edgeStyle=elbowEdgeStyle;elbow=horizontal;curved=0;rounded=0;fontSize=12;" edge="1" parent="1">
          <mxGeometry relative="1" as="geometry">
            <mxPoint x="479.5" y="430" as="sourcePoint" />
            <mxPoint x="119.5" y="430" as="targetPoint" />
          </mxGeometry>
        </mxCell>
        <mxCell id="86Eyytz8qb6HiGRPf6Bo-11" value="&lt;i&gt;:Alien&lt;/i&gt;" style="shape=umlLifeline;perimeter=lifelinePerimeter;whiteSpace=wrap;html=1;container=1;dropTarget=0;collapsible=0;recursiveResize=0;outlineConnect=0;portConstraint=eastwest;newEdgeStyle={&quot;curved&quot;:0,&quot;rounded&quot;:0};" vertex="1" parent="1">
          <mxGeometry x="1010" y="280" width="100" height="220" as="geometry" />
        </mxCell>
        <mxCell id="r6zuIfPW_ujKlIlU0nBp-17" value="SpaceInvader(properties)" style="html=1;verticalAlign=bottom;endArrow=block;elbow=vertical;rounded=0;fontSize=12;startSize=8;endSize=8;dashed=1;entryX=-0.017;entryY=0.027;entryDx=0;entryDy=0;entryPerimeter=0;" edge="1" parent="1">
          <mxGeometry width="80" relative="1" as="geometry">
            <mxPoint x="125.00000000000011" y="211.9079999999999" as="sourcePoint" />
            <mxPoint x="417.96000000000015" y="211.9079999999999" as="targetPoint" />
          </mxGeometry>
        </mxCell>
        <mxCell id="r6zuIfPW_ujKlIlU0nBp-9" value="main(args)" style="html=1;verticalAlign=bottom;startArrow=oval;startFill=1;endArrow=block;startSize=8;edgeStyle=elbowEdgeStyle;elbow=vertical;curved=0;rounded=0;fontSize=12;" edge="1" parent="1">
          <mxGeometry x="0.0056" width="60" relative="1" as="geometry">
            <mxPoint x="30" y="120" as="sourcePoint" />
            <mxPoint x="119.5" y="120" as="targetPoint" />
            <mxPoint as="offset" />
          </mxGeometry>
        </mxCell>
        <mxCell id="r6zuIfPW_ujKlIlU0nBp-18" value="alienGrid = setUpAliens()" style="html=1;verticalAlign=bottom;endArrow=block;elbow=vertical;rounded=0;fontSize=12;startSize=8;endSize=8;dashed=1;entryX=-0.033;entryY=0.073;entryDx=0;entryDy=0;entryPerimeter=0;" edge="1" parent="1" source="r6zuIfPW_ujKlIlU0nBp-19" target="86Eyytz8qb6HiGRPf6Bo-11">
          <mxGeometry width="80" relative="1" as="geometry">
            <mxPoint x="1025.9666666666667" y="297" as="sourcePoint" />
            <mxPoint x="1260" y="297.28" as="targetPoint" />
            <Array as="points" />
          </mxGeometry>
        </mxCell>
        <mxCell id="r6zuIfPW_ujKlIlU0nBp-19" value=":AlienController" style="shape=umlLifeline;perimeter=lifelinePerimeter;whiteSpace=wrap;html=1;container=1;dropTarget=0;collapsible=0;recursiveResize=0;outlineConnect=0;portConstraint=eastwest;newEdgeStyle={&quot;edgeStyle&quot;:&quot;elbowEdgeStyle&quot;,&quot;elbow&quot;:&quot;vertical&quot;,&quot;curved&quot;:0,&quot;rounded&quot;:0};fontSize=16;" vertex="1" parent="1">
          <mxGeometry x="780" y="200" width="140" height="270" as="geometry" />
        </mxCell>
        <mxCell id="r6zuIfPW_ujKlIlU0nBp-20" value="" style="html=1;points=[];perimeter=orthogonalPerimeter;outlineConnect=0;targetShapes=umlLifeline;portConstraint=eastwest;newEdgeStyle={&quot;edgeStyle&quot;:&quot;elbowEdgeStyle&quot;,&quot;elbow&quot;:&quot;vertical&quot;,&quot;curved&quot;:0,&quot;rounded&quot;:0};fontSize=16;" vertex="1" parent="r6zuIfPW_ujKlIlU0nBp-19">
          <mxGeometry x="65" y="83" width="10" height="37" as="geometry" />
        </mxCell>
        <mxCell id="r6zuIfPW_ujKlIlU0nBp-21" value="" style="html=1;verticalAlign=bottom;endArrow=block;elbow=horizontal;rounded=0;fontSize=12;startSize=8;endSize=8;" edge="1" parent="1" target="r6zuIfPW_ujKlIlU0nBp-20">
          <mxGeometry width="80" relative="1" as="geometry">
            <mxPoint x="485.0000000000001" y="285.1600000000001" as="sourcePoint" />
            <mxPoint x="1017.8999999999999" y="285.1600000000001" as="targetPoint" />
          </mxGeometry>
        </mxCell>
        <mxCell id="r6zuIfPW_ujKlIlU0nBp-24" value="setUpSpaceShip()" style="html=1;verticalAlign=bottom;endArrow=block;elbow=vertical;rounded=0;fontSize=12;startSize=8;endSize=8;dashed=1;" edge="1" parent="1">
          <mxGeometry width="80" relative="1" as="geometry">
            <mxPoint x="490" y="350" as="sourcePoint" />
            <mxPoint x="640" y="350" as="targetPoint" />
          </mxGeometry>
        </mxCell>
        <mxCell id="r6zuIfPW_ujKlIlU0nBp-26" value="alienGrid" style="html=1;verticalAlign=bottom;endArrow=open;dashed=1;endSize=8;edgeStyle=elbowEdgeStyle;elbow=vertical;curved=0;rounded=0;fontSize=12;" edge="1" parent="1">
          <mxGeometry relative="1" as="geometry">
            <mxPoint x="849.5" y="302" as="sourcePoint" />
            <mxPoint x="490" y="302" as="targetPoint" />
          </mxGeometry>
        </mxCell>
        <mxCell id="86Eyytz8qb6HiGRPf6Bo-45" value="" style="group" connectable="0" vertex="1" parent="1">
          <mxGeometry x="730" y="870" width="130" height="70" as="geometry" />
        </mxCell>
        <mxCell id="86Eyytz8qb6HiGRPf6Bo-42" value="ref" style="shape=umlFrame;whiteSpace=wrap;html=1;pointerEvents=0;width=30;height=30;" vertex="1" parent="86Eyytz8qb6HiGRPf6Bo-45">
          <mxGeometry width="120" height="70" as="geometry" />
        </mxCell>
        <mxCell id="86Eyytz8qb6HiGRPf6Bo-44" value="Set Movement Speed" style="text;html=1;align=center;verticalAlign=middle;resizable=0;points=[];autosize=1;strokeColor=none;fillColor=none;" vertex="1" parent="86Eyytz8qb6HiGRPf6Bo-45">
          <mxGeometry x="-10" y="30" width="140" height="30" as="geometry" />
        </mxCell>
        <mxCell id="r6zuIfPW_ujKlIlU0nBp-28" value="doRun()" style="html=1;verticalAlign=bottom;endArrow=block;edgeStyle=elbowEdgeStyle;rounded=0;fontSize=12;startSize=8;endSize=8;" edge="1" parent="1">
          <mxGeometry width="80" relative="1" as="geometry">
            <mxPoint x="484" y="361" as="sourcePoint" />
            <mxPoint x="484" y="421" as="targetPoint" />
            <Array as="points">
              <mxPoint x="514" y="391" />
            </Array>
          </mxGeometry>
        </mxCell>
        <mxCell id="86Eyytz8qb6HiGRPf6Bo-30" value=":SpaceShip" style="shape=umlLifeline;whiteSpace=wrap;html=1;container=0;dropTarget=0;collapsible=0;recursiveResize=0;outlineConnect=0;portConstraint=eastwest;newEdgeStyle={&quot;curved&quot;:0,&quot;rounded&quot;:0};points=[[0,0,0,0,5],[0,1,0,0,-5],[1,0,0,0,5],[1,1,0,0,-5]];perimeter=rectanglePerimeter;targetShapes=umlLifeline;participant=label;" vertex="1" parent="1">
          <mxGeometry x="877" y="1115.5" width="100" height="539" as="geometry" />
        </mxCell>
        <mxCell id="86Eyytz8qb6HiGRPf6Bo-31" value="" style="html=1;points=[[0,0,0,0,5],[0,1,0,0,-5],[1,0,0,0,5],[1,1,0,0,-5]];perimeter=orthogonalPerimeter;outlineConnect=0;targetShapes=umlLifeline;portConstraint=eastwest;newEdgeStyle={&quot;curved&quot;:0,&quot;rounded&quot;:0};container=0;" vertex="1" parent="1">
          <mxGeometry x="922" y="1195.5" width="10" height="430" as="geometry" />
        </mxCell>
        <mxCell id="86Eyytz8qb6HiGRPf6Bo-6" value="Alternative" style="shape=umlFrame;whiteSpace=wrap;html=1;pointerEvents=0;width=84;height=24;container=0;" vertex="1" parent="1">
          <mxGeometry x="746.5" y="1280.5" width="493.5" height="310" as="geometry" />
        </mxCell>
        <mxCell id="86Eyytz8qb6HiGRPf6Bo-9" value="[isPlus == false]" style="text;html=1;align=center;verticalAlign=middle;resizable=0;points=[];autosize=1;strokeColor=none;fillColor=none;container=0;" vertex="1" parent="1">
          <mxGeometry x="741.5" y="1298.5" width="110" height="30" as="geometry" />
        </mxCell>
        <mxCell id="86Eyytz8qb6HiGRPf6Bo-10" value="[isPlus == true]" style="text;html=1;align=center;verticalAlign=middle;resizable=0;points=[];autosize=1;strokeColor=none;fillColor=none;container=0;" vertex="1" parent="1">
          <mxGeometry x="744.5" y="1326.5" width="100" height="30" as="geometry" />
        </mxCell>
        <mxCell id="86Eyytz8qb6HiGRPf6Bo-16" value="Alternative" style="shape=umlFrame;whiteSpace=wrap;html=1;pointerEvents=0;width=84;height=18;container=0;" vertex="1" parent="1">
          <mxGeometry x="781.5" y="1356.5" width="438.5" height="200" as="geometry" />
        </mxCell>
        <mxCell id="86Eyytz8qb6HiGRPf6Bo-17" value="" style="line;strokeWidth=1;fillColor=none;align=left;verticalAlign=middle;spacingTop=-1;spacingLeft=3;spacingRight=3;rotatable=0;labelPosition=right;points=[];portConstraint=eastwest;strokeColor=inherit;container=0;" vertex="1" parent="1">
          <mxGeometry x="781.5" y="1419.5" width="438.5" height="8" as="geometry" />
        </mxCell>
        <mxCell id="86Eyytz8qb6HiGRPf6Bo-18" value="" style="line;strokeWidth=1;fillColor=none;align=left;verticalAlign=middle;spacingTop=-1;spacingLeft=3;spacingRight=3;rotatable=0;labelPosition=right;points=[];portConstraint=eastwest;strokeColor=inherit;container=0;" vertex="1" parent="1">
          <mxGeometry x="781.5" y="1468.5" width="438.5" height="8" as="geometry" />
        </mxCell>
        <mxCell id="86Eyytz8qb6HiGRPf6Bo-19" value="" style="line;strokeWidth=1;fillColor=none;align=left;verticalAlign=middle;spacingTop=-1;spacingLeft=3;spacingRight=3;rotatable=0;labelPosition=right;points=[];portConstraint=eastwest;strokeColor=inherit;container=0;" vertex="1" parent="1">
          <mxGeometry x="781.5" y="1508.5" width="438.5" height="8" as="geometry" />
        </mxCell>
        <mxCell id="86Eyytz8qb6HiGRPf6Bo-21" value="[nbShots ==&lt;br&gt;&amp;nbsp;NB_SHOTS_LV2]&lt;span style=&quot;background-color: initial;&quot;&gt;&amp;nbsp;&lt;/span&gt;" style="text;html=1;align=center;verticalAlign=middle;resizable=0;points=[];autosize=1;strokeColor=none;fillColor=none;container=0;" vertex="1" parent="1">
          <mxGeometry x="771.5" y="1387.5" width="130" height="40" as="geometry" />
        </mxCell>
        <mxCell id="86Eyytz8qb6HiGRPf6Bo-22" value="[nbShots ==&lt;br&gt;&amp;nbsp;NB_SHOTS_LV3]&lt;span style=&quot;background-color: initial;&quot;&gt;&amp;nbsp;&lt;/span&gt;" style="text;html=1;align=center;verticalAlign=middle;resizable=0;points=[];autosize=1;strokeColor=none;fillColor=none;container=0;" vertex="1" parent="1">
          <mxGeometry x="771.5" y="1427.5" width="130" height="40" as="geometry" />
        </mxCell>
        <mxCell id="86Eyytz8qb6HiGRPf6Bo-23" value="[nbShots ==&lt;br&gt;&amp;nbsp;NB_SHOTS_LV4]&lt;span style=&quot;background-color: initial;&quot;&gt;&amp;nbsp;&lt;/span&gt;" style="text;html=1;align=center;verticalAlign=middle;resizable=0;points=[];autosize=1;strokeColor=none;fillColor=none;container=0;" vertex="1" parent="1">
          <mxGeometry x="771.5" y="1472.5" width="130" height="40" as="geometry" />
        </mxCell>
        <mxCell id="86Eyytz8qb6HiGRPf6Bo-24" value="[nbShots ==&lt;br&gt;&amp;nbsp;NB_SHOTS_LV5]&lt;span style=&quot;background-color: initial;&quot;&gt;&amp;nbsp;&lt;/span&gt;" style="text;html=1;align=center;verticalAlign=middle;resizable=0;points=[];autosize=1;strokeColor=none;fillColor=none;container=0;" vertex="1" parent="1">
          <mxGeometry x="771.5" y="1516.5" width="130" height="40" as="geometry" />
        </mxCell>
        <mxCell id="86Eyytz8qb6HiGRPf6Bo-25" value="setStepSize(2)" style="html=1;verticalAlign=bottom;endArrow=block;curved=0;rounded=0;" edge="1" parent="1" target="86Eyytz8qb6HiGRPf6Bo-34">
          <mxGeometry width="80" relative="1" as="geometry">
            <mxPoint x="931.5" y="1406.83" as="sourcePoint" />
            <mxPoint x="1061" y="1406.83" as="targetPoint" />
          </mxGeometry>
        </mxCell>
        <mxCell id="86Eyytz8qb6HiGRPf6Bo-26" value="setStepSize(3)" style="html=1;verticalAlign=bottom;endArrow=block;curved=0;rounded=0;" edge="1" parent="1" target="86Eyytz8qb6HiGRPf6Bo-34">
          <mxGeometry width="80" relative="1" as="geometry">
            <mxPoint x="931.5" y="1447.1799999999998" as="sourcePoint" />
            <mxPoint x="1061.5" y="1447.1799999999998" as="targetPoint" />
          </mxGeometry>
        </mxCell>
        <mxCell id="86Eyytz8qb6HiGRPf6Bo-27" value="setStepSize(4)" style="html=1;verticalAlign=bottom;endArrow=block;curved=0;rounded=0;" edge="1" parent="1" target="86Eyytz8qb6HiGRPf6Bo-34">
          <mxGeometry width="80" relative="1" as="geometry">
            <mxPoint x="931.5" y="1492.1799999999998" as="sourcePoint" />
            <mxPoint x="1061.5" y="1492.1799999999998" as="targetPoint" />
          </mxGeometry>
        </mxCell>
        <mxCell id="86Eyytz8qb6HiGRPf6Bo-28" value="setStepSize(5)" style="html=1;verticalAlign=bottom;endArrow=block;curved=0;rounded=0;" edge="1" parent="1" target="86Eyytz8qb6HiGRPf6Bo-34">
          <mxGeometry width="80" relative="1" as="geometry">
            <mxPoint x="931.5" y="1536.1799999999998" as="sourcePoint" />
            <mxPoint x="1061.5" y="1536.1799999999998" as="targetPoint" />
          </mxGeometry>
        </mxCell>
        <mxCell id="86Eyytz8qb6HiGRPf6Bo-34" value="&lt;i&gt;:Alien&lt;/i&gt;" style="shape=umlLifeline;perimeter=lifelinePerimeter;whiteSpace=wrap;html=1;container=0;dropTarget=0;collapsible=0;recursiveResize=0;outlineConnect=0;portConstraint=eastwest;newEdgeStyle={&quot;curved&quot;:0,&quot;rounded&quot;:0};" vertex="1" parent="1">
          <mxGeometry x="1121.5" y="1115.5" width="100" height="539" as="geometry" />
        </mxCell>
        <mxCell id="86Eyytz8qb6HiGRPf6Bo-35" value="Set Movement Speed" style="shape=umlFrame;whiteSpace=wrap;html=1;pointerEvents=0;container=0;width=120;height=30;" vertex="1" parent="1">
          <mxGeometry x="700" y="1100" width="590" height="554.5" as="geometry" />
        </mxCell>
        <mxCell id="86Eyytz8qb6HiGRPf6Bo-33" value="autoMove()" style="html=1;align=left;spacingLeft=2;endArrow=block;rounded=0;edgeStyle=orthogonalEdgeStyle;curved=0;rounded=0;" edge="1" parent="1">
          <mxGeometry relative="1" as="geometry">
            <mxPoint x="933" y="1234.5" as="sourcePoint" />
            <Array as="points">
              <mxPoint x="963" y="1234.5" />
              <mxPoint x="963" y="1264.5" />
            </Array>
            <mxPoint x="933" y="1264.5434782608697" as="targetPoint" />
          </mxGeometry>
        </mxCell>
        <mxCell id="86Eyytz8qb6HiGRPf6Bo-37" value="act()" style="html=1;verticalAlign=bottom;startArrow=oval;startFill=1;endArrow=block;startSize=8;curved=0;rounded=0;" edge="1" parent="1">
          <mxGeometry width="60" relative="1" as="geometry">
            <mxPoint x="776" y="1198.5" as="sourcePoint" />
            <mxPoint x="921" y="1198.9038461538462" as="targetPoint" />
          </mxGeometry>
        </mxCell>
        <mxCell id="86Eyytz8qb6HiGRPf6Bo-8" value="" style="line;strokeWidth=1;fillColor=none;align=left;verticalAlign=middle;spacingTop=-1;spacingLeft=3;spacingRight=3;rotatable=0;labelPosition=right;points=[];portConstraint=eastwest;strokeColor=inherit;container=0;" vertex="1" parent="1">
          <mxGeometry x="744.5" y="1320.5" width="495.5" height="8" as="geometry" />
        </mxCell>
        <mxCell id="86Eyytz8qb6HiGRPf6Bo-50" value="isPlus = isPlus()" style="html=1;align=left;spacingLeft=2;endArrow=block;rounded=0;rounded=0;" edge="1" parent="1" target="86Eyytz8qb6HiGRPf6Bo-53">
          <mxGeometry x="-0.7097" relative="1" as="geometry">
            <mxPoint x="932" y="1204.64" as="sourcePoint" />
            <mxPoint x="1056" y="1204.64" as="targetPoint" />
            <mxPoint as="offset" />
          </mxGeometry>
        </mxCell>
        <mxCell id="86Eyytz8qb6HiGRPf6Bo-52" value=":SpaceInvader" style="shape=umlLifeline;whiteSpace=wrap;html=1;container=1;dropTarget=0;collapsible=0;recursiveResize=0;outlineConnect=0;portConstraint=eastwest;newEdgeStyle={&quot;curved&quot;:0,&quot;rounded&quot;:0};points=[[0,0,0,0,5],[0,1,0,0,-5],[1,0,0,0,5],[1,1,0,0,-5]];perimeter=rectanglePerimeter;targetShapes=umlLifeline;participant=label;" vertex="1" parent="1">
          <mxGeometry x="1000" y="1115.5" width="100" height="154.5" as="geometry" />
        </mxCell>
        <mxCell id="86Eyytz8qb6HiGRPf6Bo-53" value="" style="html=1;points=[[0,0,0,0,5],[0,1,0,0,-5],[1,0,0,0,5],[1,1,0,0,-5]];perimeter=orthogonalPerimeter;outlineConnect=0;targetShapes=umlLifeline;portConstraint=eastwest;newEdgeStyle={&quot;curved&quot;:0,&quot;rounded&quot;:0};" vertex="1" parent="86Eyytz8qb6HiGRPf6Bo-52">
          <mxGeometry x="46" y="88.5" width="10" height="11.5" as="geometry" />
        </mxCell>
        <mxCell id="r6zuIfPW_ujKlIlU0nBp-32" value=":HitAlien" style="shape=umlLifeline;perimeter=lifelinePerimeter;whiteSpace=wrap;html=1;container=1;dropTarget=0;collapsible=0;recursiveResize=0;outlineConnect=0;portConstraint=eastwest;newEdgeStyle={&quot;edgeStyle&quot;:&quot;elbowEdgeStyle&quot;,&quot;elbow&quot;:&quot;vertical&quot;,&quot;curved&quot;:0,&quot;rounded&quot;:0};fontSize=16;" vertex="1" parent="1">
          <mxGeometry x="990" y="1900" width="100" height="1070" as="geometry" />
        </mxCell>
        <mxCell id="r6zuIfPW_ujKlIlU0nBp-42" value="" style="html=1;points=[];perimeter=orthogonalPerimeter;outlineConnect=0;targetShapes=umlLifeline;portConstraint=eastwest;newEdgeStyle={&quot;edgeStyle&quot;:&quot;elbowEdgeStyle&quot;,&quot;elbow&quot;:&quot;vertical&quot;,&quot;curved&quot;:0,&quot;rounded&quot;:0};fontSize=16;" vertex="1" parent="r6zuIfPW_ujKlIlU0nBp-32">
          <mxGeometry x="45" y="220" width="10" height="660" as="geometry" />
        </mxCell>
        <mxCell id="r6zuIfPW_ujKlIlU0nBp-33" value=":Bomb" style="shape=umlLifeline;perimeter=lifelinePerimeter;whiteSpace=wrap;html=1;container=1;dropTarget=0;collapsible=0;recursiveResize=0;outlineConnect=0;portConstraint=eastwest;newEdgeStyle={&quot;edgeStyle&quot;:&quot;elbowEdgeStyle&quot;,&quot;elbow&quot;:&quot;vertical&quot;,&quot;curved&quot;:0,&quot;rounded&quot;:0};fontSize=16;" vertex="1" parent="1">
          <mxGeometry x="530" y="1900" width="100" height="1070" as="geometry" />
        </mxCell>
        <mxCell id="r6zuIfPW_ujKlIlU0nBp-34" value="" style="html=1;points=[];perimeter=orthogonalPerimeter;outlineConnect=0;targetShapes=umlLifeline;portConstraint=eastwest;newEdgeStyle={&quot;edgeStyle&quot;:&quot;elbowEdgeStyle&quot;,&quot;elbow&quot;:&quot;vertical&quot;,&quot;curved&quot;:0,&quot;rounded&quot;:0};fontSize=16;" vertex="1" parent="r6zuIfPW_ujKlIlU0nBp-33">
          <mxGeometry x="45" y="70" width="10" height="950" as="geometry" />
        </mxCell>
        <mxCell id="ehudRZ1MpeXAWUk3jGSm-7" value="removeSelf()" style="html=1;align=left;spacingLeft=2;endArrow=block;rounded=0;edgeStyle=orthogonalEdgeStyle;curved=0;rounded=0;" edge="1" parent="r6zuIfPW_ujKlIlU0nBp-33">
          <mxGeometry relative="1" as="geometry">
            <mxPoint x="55" y="997" as="sourcePoint" />
            <Array as="points">
              <mxPoint x="85" y="997" />
              <mxPoint x="85" y="1017" />
            </Array>
            <mxPoint x="55" y="1017.0222222222224" as="targetPoint" />
          </mxGeometry>
        </mxCell>
        <mxCell id="r6zuIfPW_ujKlIlU0nBp-35" value="act()" style="html=1;verticalAlign=bottom;startArrow=oval;startFill=1;endArrow=block;startSize=8;edgeStyle=elbowEdgeStyle;elbow=vertical;curved=0;rounded=0;fontSize=12;" edge="1" parent="1" target="r6zuIfPW_ujKlIlU0nBp-34">
          <mxGeometry width="60" relative="1" as="geometry">
            <mxPoint x="410" y="1970" as="sourcePoint" />
            <mxPoint x="570" y="1970" as="targetPoint" />
          </mxGeometry>
        </mxCell>
        <mxCell id="r6zuIfPW_ujKlIlU0nBp-37" value="actors = gameGrid.getActorsAt(getLocation(), Alien.class)" style="html=1;align=left;spacingLeft=2;endArrow=block;rounded=0;edgeStyle=orthogonalEdgeStyle;curved=0;rounded=0;" edge="1" parent="1">
          <mxGeometry relative="1" as="geometry">
            <mxPoint x="586" y="2020" as="sourcePoint" />
            <Array as="points">
              <mxPoint x="612" y="2020" />
              <mxPoint x="612" y="2050" />
            </Array>
            <mxPoint x="586" y="2050.04347826087" as="targetPoint" />
          </mxGeometry>
        </mxCell>
        <mxCell id="r6zuIfPW_ujKlIlU0nBp-38" value="Option" style="shape=umlFrame;whiteSpace=wrap;html=1;pointerEvents=0;fontSize=16;width=90;height=30;" vertex="1" parent="1">
          <mxGeometry x="450" y="2060" width="1210" height="730" as="geometry" />
        </mxCell>
        <mxCell id="r6zuIfPW_ujKlIlU0nBp-39" value="[actors.size() &amp;gt; 0]" style="text;html=1;align=center;verticalAlign=middle;resizable=0;points=[];autosize=1;strokeColor=none;fillColor=none;fontSize=16;" vertex="1" parent="1">
          <mxGeometry x="438" y="2120" width="150" height="30" as="geometry" />
        </mxCell>
        <mxCell id="r6zuIfPW_ujKlIlU0nBp-40" value="gameGrid.notifyAlienHit(actors)" style="html=1;align=left;spacingLeft=2;endArrow=block;rounded=0;edgeStyle=orthogonalEdgeStyle;curved=0;rounded=0;" edge="1" parent="1">
          <mxGeometry relative="1" as="geometry">
            <mxPoint x="584" y="2070" as="sourcePoint" />
            <Array as="points">
              <mxPoint x="610" y="2070" />
              <mxPoint x="610" y="2100" />
            </Array>
            <mxPoint x="584" y="2100.04347826087" as="targetPoint" />
          </mxGeometry>
        </mxCell>
        <mxCell id="r6zuIfPW_ujKlIlU0nBp-41" value="getInstance().notifyAlienHit(this, gameGrid, getLocation())" style="html=1;verticalAlign=bottom;endArrow=block;edgeStyle=elbowEdgeStyle;elbow=vertical;curved=0;rounded=0;fontSize=12;startSize=8;endSize=8;exitX=0.976;exitY=-0.003;exitDx=0;exitDy=0;exitPerimeter=0;" edge="1" parent="1" source="r6zuIfPW_ujKlIlU0nBp-39" target="r6zuIfPW_ujKlIlU0nBp-32">
          <mxGeometry x="-0.0954" width="80" relative="1" as="geometry">
            <mxPoint x="588" y="2120" as="sourcePoint" />
            <mxPoint x="907.5000000000001" y="2120.0588235294117" as="targetPoint" />
            <mxPoint as="offset" />
          </mxGeometry>
        </mxCell>
        <mxCell id="ehudRZ1MpeXAWUk3jGSm-3" value="y = getY()" style="html=1;align=left;spacingLeft=2;endArrow=block;rounded=0;edgeStyle=orthogonalEdgeStyle;curved=0;rounded=0;" edge="1" parent="1">
          <mxGeometry relative="1" as="geometry">
            <mxPoint x="585" y="2820" as="sourcePoint" />
            <Array as="points">
              <mxPoint x="610" y="2850" />
            </Array>
            <mxPoint x="585" y="2850.047619047619" as="targetPoint" />
          </mxGeometry>
        </mxCell>
        <mxCell id="ehudRZ1MpeXAWUk3jGSm-4" value="Option" style="shape=umlFrame;whiteSpace=wrap;html=1;pointerEvents=0;width=70;height=20;" vertex="1" parent="1">
          <mxGeometry x="490" y="2860" width="200" height="80" as="geometry" />
        </mxCell>
        <mxCell id="ehudRZ1MpeXAWUk3jGSm-5" value="[y &amp;lt; 5]" style="text;html=1;align=center;verticalAlign=middle;resizable=0;points=[];autosize=1;strokeColor=none;fillColor=none;" vertex="1" parent="1">
          <mxGeometry x="483" y="2890" width="60" height="30" as="geometry" />
        </mxCell>
        <mxCell id="ehudRZ1MpeXAWUk3jGSm-9" value=":Alien" style="shape=umlLifeline;perimeter=lifelinePerimeter;whiteSpace=wrap;html=1;container=1;dropTarget=0;collapsible=0;recursiveResize=0;outlineConnect=0;portConstraint=eastwest;newEdgeStyle={&quot;edgeStyle&quot;:&quot;elbowEdgeStyle&quot;,&quot;elbow&quot;:&quot;vertical&quot;,&quot;curved&quot;:0,&quot;rounded&quot;:0};fontSize=16;" vertex="1" parent="1">
          <mxGeometry x="1270" y="1900" width="100" height="1070" as="geometry" />
        </mxCell>
        <mxCell id="ehudRZ1MpeXAWUk3jGSm-10" value="" style="html=1;points=[];perimeter=orthogonalPerimeter;outlineConnect=0;targetShapes=umlLifeline;portConstraint=eastwest;newEdgeStyle={&quot;edgeStyle&quot;:&quot;elbowEdgeStyle&quot;,&quot;elbow&quot;:&quot;vertical&quot;,&quot;curved&quot;:0,&quot;rounded&quot;:0};fontSize=16;" vertex="1" parent="ehudRZ1MpeXAWUk3jGSm-9">
          <mxGeometry x="45" y="425" width="10" height="10" as="geometry" />
        </mxCell>
        <mxCell id="ehudRZ1MpeXAWUk3jGSm-11" value="" style="html=1;align=left;spacingLeft=2;endArrow=block;rounded=0;rounded=0;" edge="1" parent="1" target="ehudRZ1MpeXAWUk3jGSm-10">
          <mxGeometry x="-0.7097" relative="1" as="geometry">
            <mxPoint x="1044.9999999999998" y="2325" as="sourcePoint" />
            <mxPoint x="1235" y="2325" as="targetPoint" />
            <mxPoint as="offset" />
          </mxGeometry>
        </mxCell>
        <mxCell id="ehudRZ1MpeXAWUk3jGSm-15" value="isInvulnerable = isInvulnerable()" style="edgeLabel;html=1;align=center;verticalAlign=middle;resizable=0;points=[];" connectable="0" vertex="1" parent="ehudRZ1MpeXAWUk3jGSm-11">
          <mxGeometry x="-0.0533" y="-1" relative="1" as="geometry">
            <mxPoint x="6" y="-11" as="offset" />
          </mxGeometry>
        </mxCell>
        <mxCell id="ehudRZ1MpeXAWUk3jGSm-13" value="Option" style="shape=umlFrame;whiteSpace=wrap;html=1;pointerEvents=0;" vertex="1" parent="1">
          <mxGeometry x="880" y="2290" width="720" height="450" as="geometry" />
        </mxCell>
        <mxCell id="ehudRZ1MpeXAWUk3jGSm-14" value="[actor == Alien]" style="text;html=1;align=center;verticalAlign=middle;resizable=0;points=[];autosize=1;strokeColor=none;fillColor=none;" vertex="1" parent="1">
          <mxGeometry x="884" y="2319" width="100" height="30" as="geometry" />
        </mxCell>
        <mxCell id="ehudRZ1MpeXAWUk3jGSm-16" value="Option" style="shape=umlFrame;whiteSpace=wrap;html=1;pointerEvents=0;" vertex="1" parent="1">
          <mxGeometry x="890" y="2370" width="450" height="80" as="geometry" />
        </mxCell>
        <mxCell id="r6zuIfPW_ujKlIlU0nBp-46" value="list = gameGrid.getActorsAt(location)" style="html=1;verticalAlign=bottom;endArrow=block;edgeStyle=elbowEdgeStyle;rounded=0;fontSize=12;startSize=8;endSize=8;" edge="1" parent="1">
          <mxGeometry x="0.25" y="95" width="80" relative="1" as="geometry">
            <mxPoint x="1045" y="2130" as="sourcePoint" />
            <mxPoint x="1045" y="2170" as="targetPoint" />
            <Array as="points">
              <mxPoint x="1065" y="2185" />
            </Array>
            <mxPoint as="offset" />
          </mxGeometry>
        </mxCell>
        <mxCell id="qW6zwDi_PXXASP2jgW60-1" value="[isInvulnerable == false&lt;br&gt;&amp;amp;&amp;amp; isVisible == true]" style="text;html=1;align=center;verticalAlign=middle;resizable=0;points=[];autosize=1;strokeColor=none;fillColor=none;" vertex="1" parent="1">
          <mxGeometry x="884" y="2395" width="150" height="40" as="geometry" />
        </mxCell>
        <mxCell id="r6zuIfPW_ujKlIlU0nBp-47" value="Loop" style="shape=umlFrame;whiteSpace=wrap;html=1;pointerEvents=0;fontSize=16;" vertex="1" parent="1">
          <mxGeometry x="865" y="2200" width="755" height="560" as="geometry" />
        </mxCell>
        <mxCell id="qW6zwDi_PXXASP2jgW60-4" value="decrementLife()" style="html=1;align=left;spacingLeft=2;endArrow=block;rounded=0;rounded=0;" edge="1" parent="1" target="ehudRZ1MpeXAWUk3jGSm-9">
          <mxGeometry x="-0.3158" relative="1" as="geometry">
            <mxPoint x="1045" y="2390" as="sourcePoint" />
            <mxPoint x="1300" y="2390" as="targetPoint" />
            <mxPoint as="offset" />
          </mxGeometry>
        </mxCell>
        <mxCell id="r6zuIfPW_ujKlIlU0nBp-48" value="[for each actor in list]" style="text;html=1;align=center;verticalAlign=middle;resizable=0;points=[];autosize=1;strokeColor=none;fillColor=none;fontSize=16;" vertex="1" parent="1">
          <mxGeometry x="857" y="2228" width="170" height="30" as="geometry" />
        </mxCell>
        <mxCell id="r6zuIfPW_ujKlIlU0nBp-49" value="" style="html=1;align=left;spacingLeft=2;endArrow=block;rounded=0;rounded=0;" edge="1" parent="1" target="r6zuIfPW_ujKlIlU0nBp-65">
          <mxGeometry x="-0.7097" relative="1" as="geometry">
            <mxPoint x="1045.9999999999998" y="2353" as="sourcePoint" />
            <mxPoint x="1236" y="2353" as="targetPoint" />
            <mxPoint as="offset" />
          </mxGeometry>
        </mxCell>
        <mxCell id="r6zuIfPW_ujKlIlU0nBp-50" value="isVisible = isVisible()" style="edgeLabel;html=1;align=center;verticalAlign=middle;resizable=0;points=[];" connectable="0" vertex="1" parent="r6zuIfPW_ujKlIlU0nBp-49">
          <mxGeometry x="-0.0533" y="-1" relative="1" as="geometry">
            <mxPoint x="6" y="-11" as="offset" />
          </mxGeometry>
        </mxCell>
        <mxCell id="r6zuIfPW_ujKlIlU0nBp-51" value="bomb.removeSelf()" style="html=1;verticalAlign=bottom;endArrow=block;edgeStyle=elbowEdgeStyle;rounded=0;fontSize=12;startSize=8;endSize=8;" edge="1" parent="1">
          <mxGeometry x="0.125" y="36" width="80" relative="1" as="geometry">
            <mxPoint x="1044" y="2405" as="sourcePoint" />
            <mxPoint x="1044" y="2445" as="targetPoint" />
            <Array as="points">
              <mxPoint x="1064" y="2460" />
            </Array>
            <mxPoint as="offset" />
          </mxGeometry>
        </mxCell>
        <mxCell id="r6zuIfPW_ujKlIlU0nBp-52" value="Option" style="shape=umlFrame;whiteSpace=wrap;html=1;pointerEvents=0;" vertex="1" parent="1">
          <mxGeometry x="890" y="2480" width="700" height="240" as="geometry" />
        </mxCell>
        <mxCell id="r6zuIfPW_ujKlIlU0nBp-53" value="&lt;font style=&quot;font-size: 12px;&quot;&gt;[nbLives == 0]&lt;/font&gt;" style="text;html=1;align=center;verticalAlign=middle;resizable=0;points=[];autosize=1;strokeColor=none;fillColor=none;fontSize=16;" vertex="1" parent="1">
          <mxGeometry x="890" y="2520" width="100" height="30" as="geometry" />
        </mxCell>
        <mxCell id="r6zuIfPW_ujKlIlU0nBp-54" value="" style="html=1;align=left;spacingLeft=2;endArrow=block;rounded=0;rounded=0;" edge="1" parent="1" target="4bq6jAvu7PDAZKQQfPuM-4">
          <mxGeometry x="-0.7097" relative="1" as="geometry">
            <mxPoint x="1045.9999999999998" y="2469" as="sourcePoint" />
            <mxPoint x="1300" y="2469" as="targetPoint" />
            <mxPoint as="offset" />
          </mxGeometry>
        </mxCell>
        <mxCell id="r6zuIfPW_ujKlIlU0nBp-55" value="nbLives = getNbLives()" style="edgeLabel;html=1;align=center;verticalAlign=middle;resizable=0;points=[];" connectable="0" vertex="1" parent="r6zuIfPW_ujKlIlU0nBp-54">
          <mxGeometry x="-0.0533" y="-1" relative="1" as="geometry">
            <mxPoint x="6" y="-11" as="offset" />
          </mxGeometry>
        </mxCell>
        <mxCell id="hKa77B2o8MPHEI5Hre7E-1" value=":Explosion" style="shape=umlLifeline;perimeter=lifelinePerimeter;whiteSpace=wrap;html=1;container=1;dropTarget=0;collapsible=0;recursiveResize=0;outlineConnect=0;portConstraint=eastwest;newEdgeStyle={&quot;edgeStyle&quot;:&quot;elbowEdgeStyle&quot;,&quot;elbow&quot;:&quot;vertical&quot;,&quot;curved&quot;:0,&quot;rounded&quot;:0};fontSize=16;" vertex="1" parent="1">
          <mxGeometry x="1360" y="2518" width="100" height="162" as="geometry" />
        </mxCell>
        <mxCell id="hKa77B2o8MPHEI5Hre7E-2" value="" style="html=1;points=[];perimeter=orthogonalPerimeter;outlineConnect=0;targetShapes=umlLifeline;portConstraint=eastwest;newEdgeStyle={&quot;edgeStyle&quot;:&quot;elbowEdgeStyle&quot;,&quot;elbow&quot;:&quot;vertical&quot;,&quot;curved&quot;:0,&quot;rounded&quot;:0};fontSize=16;" vertex="1" parent="hKa77B2o8MPHEI5Hre7E-1">
          <mxGeometry x="45" y="53" width="10" height="107" as="geometry" />
        </mxCell>
        <mxCell id="r6zuIfPW_ujKlIlU0nBp-57" value="explode(gameGrid, location)" style="html=1;verticalAlign=bottom;endArrow=block;edgeStyle=elbowEdgeStyle;rounded=0;fontSize=12;startSize=8;endSize=8;" edge="1" parent="1">
          <mxGeometry x="0.25" y="53" width="80" relative="1" as="geometry">
            <mxPoint x="1047" y="2490" as="sourcePoint" />
            <mxPoint x="1047" y="2530" as="targetPoint" />
            <Array as="points">
              <mxPoint x="1067" y="2545" />
            </Array>
            <mxPoint as="offset" />
          </mxGeometry>
        </mxCell>
        <mxCell id="r6zuIfPW_ujKlIlU0nBp-58" value="&lt;font style=&quot;font-size: 12px;&quot;&gt;Option&lt;/font&gt;" style="shape=umlFrame;whiteSpace=wrap;html=1;pointerEvents=0;fontSize=16;" vertex="1" parent="1">
          <mxGeometry x="900" y="2610" width="410" height="90" as="geometry" />
        </mxCell>
        <mxCell id="75y0w8qx-HFnfJ4xpyMp-1" value="Explosion()" style="html=1;verticalAlign=bottom;endArrow=block;curved=0;rounded=0;dashed=1;dashPattern=8 8;" edge="1" parent="1">
          <mxGeometry width="80" relative="1" as="geometry">
            <mxPoint x="1045" y="2539" as="sourcePoint" />
            <mxPoint x="1360" y="2539" as="targetPoint" />
          </mxGeometry>
        </mxCell>
        <mxCell id="r6zuIfPW_ujKlIlU0nBp-59" value=":MultipleAlien" style="shape=umlLifeline;perimeter=lifelinePerimeter;whiteSpace=wrap;html=1;container=1;dropTarget=0;collapsible=0;recursiveResize=0;outlineConnect=0;portConstraint=eastwest;newEdgeStyle={&quot;edgeStyle&quot;:&quot;elbowEdgeStyle&quot;,&quot;elbow&quot;:&quot;vertical&quot;,&quot;curved&quot;:0,&quot;rounded&quot;:0};fontSize=16;" vertex="1" parent="1">
          <mxGeometry x="1500" y="1900" width="110" height="1070" as="geometry" />
        </mxCell>
        <mxCell id="r6zuIfPW_ujKlIlU0nBp-66" value="" style="html=1;points=[];perimeter=orthogonalPerimeter;outlineConnect=0;targetShapes=umlLifeline;portConstraint=eastwest;newEdgeStyle={&quot;edgeStyle&quot;:&quot;elbowEdgeStyle&quot;,&quot;elbow&quot;:&quot;vertical&quot;,&quot;curved&quot;:0,&quot;rounded&quot;:0};fontSize=16;" vertex="1" parent="r6zuIfPW_ujKlIlU0nBp-59">
          <mxGeometry x="50" y="701" width="10" height="10" as="geometry" />
        </mxCell>
        <mxCell id="75y0w8qx-HFnfJ4xpyMp-2" value="removeSelf()" style="html=1;align=left;spacingLeft=2;endArrow=block;rounded=0;edgeStyle=orthogonalEdgeStyle;curved=0;rounded=0;entryX=0.656;entryY=0.467;entryDx=0;entryDy=0;entryPerimeter=0;" edge="1" parent="1" target="xXk9SY9yA-t1AmWT-FI6-3">
          <mxGeometry relative="1" as="geometry">
            <mxPoint x="1415" y="2570" as="sourcePoint" />
            <Array as="points">
              <mxPoint x="1445" y="2570" />
              <mxPoint x="1445" y="2675" />
              <mxPoint x="1415" y="2675" />
            </Array>
            <mxPoint x="1415" y="2590.0222222222224" as="targetPoint" />
          </mxGeometry>
        </mxCell>
        <mxCell id="r6zuIfPW_ujKlIlU0nBp-61" value="&lt;font style=&quot;font-size: 12px;&quot;&gt;[alienType == &quot;multiple&quot;&lt;br&gt;&amp;amp;&amp;amp; isMultiplied == false]&lt;br&gt;&lt;/font&gt;" style="text;html=1;align=center;verticalAlign=middle;resizable=0;points=[];autosize=1;strokeColor=none;fillColor=none;fontSize=16;" vertex="1" parent="1">
          <mxGeometry x="890" y="2632" width="150" height="50" as="geometry" />
        </mxCell>
        <mxCell id="r6zuIfPW_ujKlIlU0nBp-62" value="removeInvisibleNormalAliensPrepared(AlienGrid)" style="html=1;verticalAlign=bottom;endArrow=block;edgeStyle=elbowEdgeStyle;rounded=0;fontSize=12;startSize=8;endSize=8;" edge="1" parent="1">
          <mxGeometry x="0.275" y="115" width="80" relative="1" as="geometry">
            <mxPoint x="1045" y="2649" as="sourcePoint" />
            <mxPoint x="1045" y="2689" as="targetPoint" />
            <Array as="points">
              <mxPoint x="1065" y="2704" />
            </Array>
            <mxPoint as="offset" />
          </mxGeometry>
        </mxCell>
        <mxCell id="4bq6jAvu7PDAZKQQfPuM-1" value="" style="html=1;align=left;spacingLeft=2;endArrow=block;rounded=0;rounded=0;" edge="1" parent="1">
          <mxGeometry x="-0.7097" relative="1" as="geometry">
            <mxPoint x="1044.9999999999998" y="2580" as="sourcePoint" />
            <mxPoint x="1315" y="2580" as="targetPoint" />
            <mxPoint as="offset" />
          </mxGeometry>
        </mxCell>
        <mxCell id="4bq6jAvu7PDAZKQQfPuM-2" value="alienType = getType()" style="edgeLabel;html=1;align=center;verticalAlign=middle;resizable=0;points=[];" connectable="0" vertex="1" parent="4bq6jAvu7PDAZKQQfPuM-1">
          <mxGeometry x="-0.0533" y="-1" relative="1" as="geometry">
            <mxPoint x="6" y="-11" as="offset" />
          </mxGeometry>
        </mxCell>
        <mxCell id="r6zuIfPW_ujKlIlU0nBp-63" value="" style="html=1;align=left;spacingLeft=2;endArrow=block;rounded=0;rounded=0;" edge="1" parent="1">
          <mxGeometry x="-0.7097" relative="1" as="geometry">
            <mxPoint x="1045" y="2602" as="sourcePoint" />
            <mxPoint x="1554.5" y="2602" as="targetPoint" />
            <mxPoint as="offset" />
          </mxGeometry>
        </mxCell>
        <mxCell id="r6zuIfPW_ujKlIlU0nBp-64" value="isMultiplied = isMultiplied()" style="edgeLabel;html=1;align=center;verticalAlign=middle;resizable=0;points=[];" connectable="0" vertex="1" parent="r6zuIfPW_ujKlIlU0nBp-63">
          <mxGeometry x="-0.0533" y="-1" relative="1" as="geometry">
            <mxPoint x="-103" y="-10" as="offset" />
          </mxGeometry>
        </mxCell>
        <mxCell id="4bq6jAvu7PDAZKQQfPuM-3" value="" style="html=1;points=[];perimeter=orthogonalPerimeter;outlineConnect=0;targetShapes=umlLifeline;portConstraint=eastwest;newEdgeStyle={&quot;edgeStyle&quot;:&quot;elbowEdgeStyle&quot;,&quot;elbow&quot;:&quot;vertical&quot;,&quot;curved&quot;:0,&quot;rounded&quot;:0};fontSize=16;" vertex="1" parent="1">
          <mxGeometry x="1315" y="2390" width="10" height="10" as="geometry" />
        </mxCell>
        <mxCell id="4bq6jAvu7PDAZKQQfPuM-4" value="" style="html=1;points=[];perimeter=orthogonalPerimeter;outlineConnect=0;targetShapes=umlLifeline;portConstraint=eastwest;newEdgeStyle={&quot;edgeStyle&quot;:&quot;elbowEdgeStyle&quot;,&quot;elbow&quot;:&quot;vertical&quot;,&quot;curved&quot;:0,&quot;rounded&quot;:0};fontSize=16;" vertex="1" parent="1">
          <mxGeometry x="1315" y="2467" width="10" height="11" as="geometry" />
        </mxCell>
        <mxCell id="r6zuIfPW_ujKlIlU0nBp-65" value="" style="html=1;points=[];perimeter=orthogonalPerimeter;outlineConnect=0;targetShapes=umlLifeline;portConstraint=eastwest;newEdgeStyle={&quot;edgeStyle&quot;:&quot;elbowEdgeStyle&quot;,&quot;elbow&quot;:&quot;vertical&quot;,&quot;curved&quot;:0,&quot;rounded&quot;:0};fontSize=16;" vertex="1" parent="1">
          <mxGeometry x="1315" y="2353" width="10" height="9" as="geometry" />
        </mxCell>
        <mxCell id="4bq6jAvu7PDAZKQQfPuM-5" value="" style="html=1;points=[];perimeter=orthogonalPerimeter;outlineConnect=0;targetShapes=umlLifeline;portConstraint=eastwest;newEdgeStyle={&quot;edgeStyle&quot;:&quot;elbowEdgeStyle&quot;,&quot;elbow&quot;:&quot;vertical&quot;,&quot;curved&quot;:0,&quot;rounded&quot;:0};fontSize=16;" vertex="1" parent="1">
          <mxGeometry x="1315" y="2579" width="10" height="10" as="geometry" />
        </mxCell>
        <mxCell id="4bq6jAvu7PDAZKQQfPuM-6" value="Hit Alien Logic" style="shape=umlFrame;whiteSpace=wrap;html=1;pointerEvents=0;container=0;width=120;height=30;" vertex="1" parent="1">
          <mxGeometry x="400" y="1870" width="1310" height="1120" as="geometry" />
        </mxCell>
        <mxCell id="4bq6jAvu7PDAZKQQfPuM-7" value="" style="group" connectable="0" vertex="1" parent="1">
          <mxGeometry x="400" y="1740" width="130" height="70" as="geometry" />
        </mxCell>
        <mxCell id="4bq6jAvu7PDAZKQQfPuM-8" value="ref" style="shape=umlFrame;whiteSpace=wrap;html=1;pointerEvents=0;width=30;height=30;" vertex="1" parent="4bq6jAvu7PDAZKQQfPuM-7">
          <mxGeometry width="120" height="70" as="geometry" />
        </mxCell>
        <mxCell id="4bq6jAvu7PDAZKQQfPuM-9" value="Hit Alien Logic" style="text;html=1;align=center;verticalAlign=middle;resizable=0;points=[];autosize=1;strokeColor=none;fillColor=none;" vertex="1" parent="4bq6jAvu7PDAZKQQfPuM-7">
          <mxGeometry x="10" y="30" width="100" height="30" as="geometry" />
        </mxCell>
        <mxCell id="xXk9SY9yA-t1AmWT-FI6-3" value="" style="shape=umlDestroy;whiteSpace=wrap;html=1;strokeWidth=3;targetShapes=umlLifeline;" vertex="1" parent="1">
          <mxGeometry x="1395" y="2660" width="30" height="30" as="geometry" />
        </mxCell>
        <mxCell id="xXk9SY9yA-t1AmWT-FI6-4" value="" style="shape=umlDestroy;whiteSpace=wrap;html=1;strokeWidth=3;targetShapes=umlLifeline;" vertex="1" parent="1">
          <mxGeometry x="565" y="2903" width="30" height="30" as="geometry" />
        </mxCell>
      </root>
    </mxGraphModel>
  </diagram>
</mxfile>
